<?xml version="1.0" standalone="no"?>
<!DOCTYPE svg PUBLIC "-//W3C//DTD SVG 20010904//EN"
 "http://www.w3.org/TR/2001/REC-SVG-20010904/DTD/svg10.dtd">
<svg version="1.0" xmlns="http://www.w3.org/2000/svg"
 width="256.000000pt" height="256.000000pt" viewBox="0 0 256.000000 256.000000"
 preserveAspectRatio="xMidYMid meet">

<g transform="translate(0.000000,256.000000) scale(0.100000,-0.100000)"
fill="#013453" stroke="none">
<path d="M1215 2434 c-247 -158 -520 -258 -815 -301 -63 -9 -119 -21 -123 -27
-11 -14 1 -550 14 -676 23 -212 86 -435 173 -615 137 -279 320 -480 582 -637
119 -72 227 -128 245 -128 23 0 216 104 314 169 134 89 329 282 414 411 148
225 233 468 275 785 15 119 23 690 9 698 -5 3 -59 12 -122 22 -284 41 -540
135 -807 296 -45 27 -83 49 -85 48 -2 0 -35 -20 -74 -45z m173 -221 c28 -19
47 -41 59 -70 17 -40 21 -43 56 -43 l37 0 0 -77 1 -78 40 -19 c23 -10 49 -33
60 -50 30 -48 24 -93 -23 -182 -34 -65 -42 -91 -45 -149 l-5 -70 35 -23 c68
-45 87 -138 43 -203 -23 -33 -78 -69 -105 -69 -6 0 -11 -8 -11 -18 0 -24 36
-148 57 -197 19 -44 85 -148 115 -182 34 -37 68 -147 68 -219 0 -131 -57 -180
-248 -213 -79 -14 -143 -18 -247 -16 -387 8 -508 95 -449 320 16 63 34 97 115
210 37 53 58 97 84 179 19 60 35 113 35 117 0 5 -20 17 -44 27 -24 11 -55 35
-70 54 -48 64 -29 169 39 214 23 15 25 22 25 87 0 62 -4 78 -36 136 -48 86
-56 117 -44 162 11 38 69 99 95 99 12 0 15 16 15 80 l0 80 40 0 c36 0 41 3 55
37 31 73 76 102 160 103 39 0 61 -6 93 -27z"/>
<path d="M1250 2100 c0 -23 -5 -30 -19 -30 -26 0 -34 -15 -27 -46 4 -15 14
-24 26 -24 15 0 20 -7 20 -25 0 -22 -4 -25 -33 -25 -26 0 -36 6 -45 25 -6 14
-18 25 -27 25 -12 0 -14 -11 -9 -62 4 -35 11 -67 16 -73 9 -10 272 -14 281 -5
3 3 8 35 12 73 6 54 5 67 -6 67 -8 0 -19 -10 -24 -22 -7 -17 -20 -24 -47 -26
-35 -3 -38 -1 -38 22 0 21 5 26 25 26 22 0 25 4 25 35 0 31 -3 35 -25 35 -21
0 -25 5 -25 30 0 28 -2 30 -40 30 -38 0 -40 -2 -40 -30z"/>
<path d="M1034 1817 c-3 -8 8 -37 25 -64 45 -73 91 -213 70 -213 -5 0 -9 -9
-9 -20 0 -27 54 -40 175 -40 119 0 175 13 175 40 0 10 -5 20 -11 22 -17 6 8
95 51 178 39 74 49 110 31 110 -5 0 -28 -7 -52 -16 -65 -24 -257 -30 -339 -11
-36 8 -75 18 -87 22 -16 5 -25 3 -29 -8z"/>
<path d="M1098 1427 c-15 -28 6 -42 89 -57 84 -16 216 -8 272 16 38 17 41 21
28 38 -12 17 -19 17 -66 7 -71 -15 -195 -14 -259 3 -50 13 -53 12 -64 -7z"/>
<path d="M1036 1351 c-21 -23 -20 -34 4 -56 61 -55 392 -61 492 -9 19 10 28
22 28 40 0 35 -23 39 -76 14 -91 -45 -346 -37 -408 11 -23 18 -24 18 -40 0z"/>
<path d="M1165 1175 c-2 -11 -9 -50 -15 -86 -7 -37 -27 -103 -45 -148 -31 -79
-32 -82 -13 -92 11 -6 62 -15 113 -21 96 -11 229 -1 287 21 l27 10 -24 48
c-31 65 -62 167 -70 233 l-7 55 -124 0 c-117 0 -125 -1 -129 -20z"/>
<path d="M1025 784 c-9 -14 -15 -27 -13 -29 72 -62 392 -74 524 -19 38 16 40
21 20 50 l-15 21 -73 -19 c-93 -25 -319 -21 -382 5 -47 21 -41 22 -61 -9z"/>
<path d="M968 704 c-39 -20 -48 -43 -48 -118 0 -80 14 -98 94 -121 118 -34
425 -34 551 0 88 24 95 33 95 126 0 73 -1 78 -30 102 -26 22 -33 24 -55 14
-33 -16 -32 -30 6 -44 132 -50 -218 -105 -455 -72 -139 19 -187 50 -137 88 30
24 14 43 -21 25z"/>
</g>
</svg>
